<svg 
    id="A_B_Outline" 
    data-name="A / B Outline" 
    xmlns="http://www.w3.org/2000/svg" 
    viewBox="0 0 2066 1778"
    fill="#ED5A14">
    <defs>
        <style>
            .cls-1{stroke:none;stroke-miterlimit:10;stroke-width:50px;}
        </style>
    </defs>
    <path 
    class="cls-1" 
    d="M1152,1555.71c88.18,146.38,248.65,244.29,432,244.29,278.35,0,504-225.65,504-504V1152a144,144,0,0,0-288,0v144c0,119.29-96.71,216-216,216a216.05,216.05,0,0,1-199.29-132.58l-80.94-233.36-117.86,342.47A501.88,501.88,0,0,1,1152,1555.71Z" 
    transform="translate(-47 -47)"/>
<path 
    class="cls-1" 
    d="M1008,316.29C919.81,169.91,759.35,72,576,72H216A144,144,0,0,0,72,216V576H360V360H576A215.91,215.91,0,0,1,763,467.84l91.54,263.08L974.25,383.08A502.23,502.23,0,0,1,1008,316.29Z" 
    transform="translate(-47 -47)"/>
<path 
    class="cls-1" 
    d="M1584,72c-210,0-390,128.46-465.75,311.08l-342.49,995.2A216,216,0,0,1,576,1512c-119.29,0-216-96.71-216-216V1152a144,144,0,0,0-288,0v144c0,278.35,225.65,504,504,504,210.17,0,390.28-128.64,465.91-311.47L1384.4,493.32A216.06,216.06,0,0,1,1584,360c119.29,0,216,96.71,216,216V720a144,144,0,0,0,288,0V576C2088,297.65,1862.35,72,1584,72Z" 
    transform="translate(-47 -47)"/>
</svg>